<svg width="658" height="658" viewBox="0 0 658 658" fill="none" xmlns="http://www.w3.org/2000/svg">
<path d="M329 658C510.702 658 658 510.702 658 329C658 147.298 510.702 0 329 0C147.298 0 0 147.298 0 329C0 510.702 147.298 658 329 658Z" fill="#26B7FF"/>
<mask id="mask0_2_41" style="mask-type:luminance" maskUnits="userSpaceOnUse" x="0" y="0" width="658" height="658">
<path d="M329 658C510.702 658 658 510.702 658 329C658 147.298 510.702 0 329 0C147.298 0 0 147.298 0 329C0 510.702 147.298 658 329 658Z" fill="white"/>
</mask>
<g mask="url(#mask0_2_41)">
<path d="M407.96 1000.16C607.832 1000.16 769.86 838.132 769.86 638.26C769.86 438.388 607.832 276.36 407.96 276.36C208.088 276.36 46.0601 438.388 46.0601 638.26C46.0601 838.132 208.088 1000.16 407.96 1000.16Z" fill="#2284E6"/>
</g>
<mask id="mask1_2_41" style="mask-type:luminance" maskUnits="userSpaceOnUse" x="0" y="0" width="658" height="658">
<path d="M329 658C510.702 658 658 510.702 658 329C658 147.298 510.702 0 329 0C147.298 0 0 147.298 0 329C0 510.702 147.298 658 329 658Z" fill="white"/>
</mask>
<g mask="url(#mask1_2_41)">
<mask id="mask2_2_41" style="mask-type:luminance" maskUnits="userSpaceOnUse" x="46" y="276" width="724" height="725">
<path d="M407.96 1000.16C607.832 1000.16 769.86 838.132 769.86 638.26C769.86 438.388 607.832 276.36 407.96 276.36C208.088 276.36 46.0601 438.388 46.0601 638.26C46.0601 838.132 208.088 1000.16 407.96 1000.16Z" fill="white"/>
</mask>
<g mask="url(#mask2_2_41)">
<path d="M146.734 494.158C178.976 513.24 211.218 515.214 238.854 489.552C273.728 457.968 310.576 472.444 329 475.076C397.432 484.288 459.942 449.414 459.284 367.822C459.284 334.264 470.47 280.966 429.016 271.754C380.982 261.226 318.472 265.832 255.304 287.546C135.548 328.342 71.722 398.748 94.094 464.548C101.332 485.604 114.492 475.076 146.734 494.158Z" fill="#3E7BCA"/>
</g>
<mask id="mask3_2_41" style="mask-type:luminance" maskUnits="userSpaceOnUse" x="46" y="276" width="724" height="725">
<path d="M407.96 1000.16C607.832 1000.16 769.86 838.132 769.86 638.26C769.86 438.388 607.832 276.36 407.96 276.36C208.088 276.36 46.0601 438.388 46.0601 638.26C46.0601 838.132 208.088 1000.16 407.96 1000.16Z" fill="white"/>
</mask>
<g mask="url(#mask3_2_41)">
<path d="M136.864 417.83C136.864 417.83 184.24 419.804 183.582 451.388C182.924 482.972 207.27 473.102 208.586 484.288C209.902 495.474 221.088 519.162 242.144 515.872C263.2 512.582 263.858 539.56 283.598 548.772C303.338 557.984 323.078 572.46 352.03 567.196C380.982 561.932 330.974 540.876 338.87 520.478C346.766 500.08 377.692 513.898 402.038 490.21C426.384 466.522 448.756 487.578 498.106 463.89C547.456 440.202 552.72 469.812 607.334 467.838C661.948 465.864 742.882 382.298 742.882 382.298C742.882 382.298 596.806 231.616 335.58 259.91C74.3541 288.204 136.864 417.83 136.864 417.83ZM240.17 706.692C198.716 698.796 114.492 613.914 114.492 613.914C114.492 613.914 110.544 566.538 164.5 563.906C218.456 561.274 197.4 607.334 219.114 611.94C240.828 616.546 253.33 612.598 261.226 657.342C269.122 702.086 272.412 712.614 240.17 706.692Z" fill="#8EBF1D"/>
</g>
<mask id="mask4_2_41" style="mask-type:luminance" maskUnits="userSpaceOnUse" x="46" y="276" width="724" height="725">
<path d="M407.96 1000.16C607.832 1000.16 769.86 838.132 769.86 638.26C769.86 438.388 607.832 276.36 407.96 276.36C208.088 276.36 46.0601 438.388 46.0601 638.26C46.0601 838.132 208.088 1000.16 407.96 1000.16Z" fill="white"/>
</mask>
<g mask="url(#mask4_2_41)">
<mask id="mask5_2_41" style="mask-type:luminance" maskUnits="userSpaceOnUse" x="114" y="256" width="629" height="453">
<path d="M136.864 417.83C136.864 417.83 184.24 419.804 183.582 451.388C182.924 482.972 207.27 473.102 208.586 484.288C209.902 495.474 221.088 519.162 242.144 515.872C263.2 512.582 263.858 539.56 283.598 548.772C303.338 557.984 323.078 572.46 352.03 567.196C380.982 561.932 330.974 540.876 338.87 520.478C346.766 500.08 377.692 513.898 402.038 490.21C426.384 466.522 448.756 487.578 498.106 463.89C547.456 440.202 552.72 469.812 607.334 467.838C661.948 465.864 742.882 382.298 742.882 382.298C742.882 382.298 596.806 231.616 335.58 259.91C74.3541 288.204 136.864 417.83 136.864 417.83ZM240.17 706.692C198.716 698.796 114.492 613.914 114.492 613.914C114.492 613.914 110.544 566.538 164.5 563.906C218.456 561.274 197.4 607.334 219.114 611.94C240.828 616.546 253.33 612.598 261.226 657.342C269.122 702.086 272.412 712.614 240.17 706.692Z" fill="white"/>
</mask>
<g mask="url(#mask5_2_41)">
<path d="M146.734 494.158C178.976 513.24 211.218 515.214 238.854 489.552C273.728 457.968 310.576 472.444 329 475.076C397.432 484.288 459.942 449.414 459.284 367.822C459.284 334.264 470.47 280.966 429.016 271.754C380.982 261.226 318.472 265.832 255.304 287.546C135.548 328.342 71.722 398.748 94.094 464.548C101.332 485.604 114.492 475.076 146.734 494.158Z" fill="#8CAA2B"/>
</g>
</g>
</g>
<path d="M62.51 375.06C75.012 375.06 85.54 364.532 85.54 352.03C85.54 339.528 75.012 329 62.51 329C50.008 329 39.48 339.528 39.48 352.03C39.48 364.532 50.008 375.06 62.51 375.06ZM276.36 92.12C283.598 92.12 289.52 86.198 289.52 78.96C289.52 71.722 283.598 65.8 276.36 65.8C269.122 65.8 263.2 71.722 263.2 78.96C263.2 86.198 269.122 92.12 276.36 92.12ZM503.37 217.14C508.634 217.14 513.24 212.534 513.24 207.27C513.24 202.006 508.634 197.4 503.37 197.4C498.106 197.4 493.5 202.006 493.5 207.27C493.5 212.534 498.106 217.14 503.37 217.14Z" fill="#7BD4FF"/>
<path d="M223.72 311.234L237.538 325.052L234.906 411.25L223.72 422.436L167.79 367.164L223.72 311.234Z" fill="#CCE0EB"/>
<path d="M358.61 176.344L367.822 185.556L391.51 388.878C392.168 396.116 388.878 405.986 383.614 411.25L377.034 417.83C371.77 423.094 363.874 423.094 358.61 417.83L237.538 297.416L358.61 176.344Z" fill="#CCE0EB"/>
<path d="M228.326 315.84L214.508 302.022L128.31 304.654L117.124 315.84L172.396 371.77L228.326 315.84Z" fill="#CCE0EB"/>
<path d="M363.216 180.95L354.004 171.738L150.682 147.392C143.444 146.734 133.574 150.024 128.31 155.288L121.73 161.868C116.466 167.132 116.466 175.028 121.73 180.292L242.802 301.364L363.216 180.95Z" fill="#CCE0EB"/>
<path d="M398.09 141.47C414.54 157.92 407.302 192.794 381.64 218.456L349.398 250.698C302.68 297.416 188.188 374.402 186.872 375.06C177.66 382.298 166.474 383.614 161.21 378.35C155.288 373.086 157.262 361.9 164.5 352.688C165.816 351.372 243.46 236.88 289.52 190.162L321.762 157.92C347.424 131.6 381.64 124.362 398.09 141.47Z" fill="white"/>
<path d="M372.428 204.638C368.48 204.638 364.532 202.006 363.216 198.058C363.216 198.058 361.242 192.794 354.004 185.556C346.766 178.318 341.502 176.344 341.502 176.344C336.238 174.37 333.606 169.106 335.58 163.842C337.554 158.578 342.818 155.946 348.082 157.92C349.398 158.578 357.952 161.21 368.48 171.738C379.008 182.266 382.298 190.82 382.298 191.478C384.272 196.742 381.64 202.006 376.376 203.98C375.06 204.638 373.744 204.638 372.428 204.638Z" fill="#A9B9C2"/>
</svg>
