<svg width="37" height="37" viewBox="0 0 37 37" fill="none" xmlns="http://www.w3.org/2000/svg">
<path d="M35.8179 33.7011L27.0118 24.5424C29.276 21.8508 30.5166 18.4643 30.5166 14.9387C30.5166 6.70165 23.815 0 15.5779 0C7.34078 0 0.63913 6.70165 0.63913 14.9387C0.63913 23.1758 7.34078 29.8775 15.5779 29.8775C18.6702 29.8775 21.617 28.9448 24.1365 27.1742L33.0094 36.4025C33.3803 36.7876 33.8791 37 34.4137 37C34.9196 37 35.3996 36.8071 35.764 36.4564C36.5382 35.7114 36.5629 34.476 35.8179 33.7011ZM15.5779 3.89706C21.6664 3.89706 26.6195 8.85023 26.6195 14.9387C26.6195 21.0272 21.6664 25.9804 15.5779 25.9804C9.48936 25.9804 4.53619 21.0272 4.53619 14.9387C4.53619 8.85023 9.48936 3.89706 15.5779 3.89706Z" fill="white"/>
</svg>
